<svg xmlns="http://www.w3.org/2000/svg" xmlns:xlink="http://www.w3.org/1999/xlink" width="500" zoomAndPan="magnify" viewBox="0 0 375 374.999991" height="500" preserveAspectRatio="xMidYMid meet" version="1.2"><defs><clipPath id="64b849c5e0"><path d="M 67.703125 148 L 148.703125 148 L 148.703125 227 L 67.703125 227 Z M 67.703125 148 "/></clipPath><clipPath id="30c7f09648"><path d="M 100 146.070312 L 116 146.070312 L 116 162 L 100 162 Z M 100 146.070312 "/></clipPath></defs><g id="84b686f788"><circle cx="187.5" cy="187.5" r="187.5" fill="#0a0a0a"/><g clip-rule="nonzero" clip-path="url(#64b849c5e0)"><path style=" stroke:none;fill-rule:nonzero;fill:#ffffff;fill-opacity:1;" d="M 148.667969 186.421875 C 148.667969 169.0625 137.636719 154.273438 122.238281 148.582031 C 122.808594 150.160156 123.136719 151.851562 123.136719 153.625 C 123.136719 157.507812 121.628906 161.035156 119.179688 163.683594 C 127.65625 167.757812 133.535156 176.402344 133.535156 186.421875 C 133.535156 200.335938 122.210938 211.65625 108.296875 211.65625 C 94.378906 211.65625 83.058594 200.335938 83.058594 186.421875 C 83.058594 176.402344 88.9375 167.757812 97.414062 163.683594 C 94.964844 161.035156 93.453125 157.507812 93.453125 153.625 C 93.453125 151.851562 93.78125 150.160156 94.355469 148.582031 C 78.953125 154.273438 67.921875 169.0625 67.921875 186.421875 C 67.921875 208.679688 86.035156 226.792969 108.296875 226.792969 C 130.558594 226.792969 148.667969 208.679688 148.667969 186.421875 Z M 148.667969 186.421875 "/></g><g clip-rule="nonzero" clip-path="url(#30c7f09648)"><path style=" stroke:none;fill-rule:nonzero;fill:#19e32d;fill-opacity:1;" d="M 100.738281 153.625 C 100.738281 149.457031 104.128906 146.066406 108.296875 146.066406 C 112.460938 146.066406 115.851562 149.457031 115.851562 153.625 C 115.851562 157.792969 112.460938 161.179688 108.296875 161.179688 C 104.128906 161.179688 100.738281 157.792969 100.738281 153.625 Z M 100.738281 153.625 "/></g><g style="fill:#ffffff;fill-opacity:1;"><g transform="translate(148.7073, 223.905689)"><path style="stroke:none" d="M 61.015625 -78.296875 L 61.015625 -65.625 L 40.15625 -65.625 L 40.15625 0 L 24.453125 0 L 24.453125 -65.625 L 3.59375 -65.625 L 3.59375 -78.296875 Z M 61.015625 -78.296875 "/></g></g><g style="fill:#ffffff;fill-opacity:1;"><g transform="translate(213.422119, 223.905689)"><path style="stroke:none" d="M 93.109375 -78.296875 L 93.109375 0 L 77.40625 0 L 77.40625 -50.921875 L 56.421875 0 L 44.53125 0 L 23.4375 -50.921875 L 23.4375 0 L 7.734375 0 L 7.734375 -78.296875 L 25.578125 -78.296875 L 50.484375 -20.078125 L 75.375 -78.296875 Z M 93.109375 -78.296875 "/></g></g></g></svg>